<?xml version="1.0" encoding="utf-8"?>
<!-- Generator: $$$/GeneralStr/196=Adobe Illustrator 27.6.0, SVG Export Plug-In . SVG Version: 6.00 Build 0)  -->
<svg version="1.1" id="Ebene_1" xmlns="http://www.w3.org/2000/svg" xmlns:xlink="http://www.w3.org/1999/xlink" x="0px" y="0px"
	 viewBox="0 0 999 754" style="enable-background:new 0 0 999 754;" xml:space="preserve">
<style type="text/css">
	.st0{fill:none;stroke:#000000;stroke-width:2;stroke-opacity:0.847;}
	.st1{fill:none;stroke:#000000;stroke-width:2;stroke-opacity:0.765;}
	.st2{fill:none;stroke:#000000;stroke-width:2;stroke-opacity:0.62;}
	.st3{fill:none;stroke:#000000;stroke-width:2;stroke-opacity:0.875;}
	.st4{fill:none;stroke:#000000;stroke-width:2;stroke-opacity:0.718;}
	.st5{fill:none;stroke:#000000;stroke-width:2;stroke-opacity:0.941;}
	.st6{fill:none;stroke:#000000;stroke-width:2;stroke-opacity:0.537;}
	.st7{fill:none;stroke:#000000;stroke-width:2;stroke-opacity:0.902;}
	.st8{fill:none;stroke:#000000;stroke-width:2;stroke-opacity:0.82;}
	.st9{fill:none;stroke:#000000;stroke-width:2;stroke-opacity:0.675;}
	.st10{fill:none;stroke:#000000;stroke-width:2;stroke-opacity:0.973;}
	.st11{fill:none;stroke:#000000;stroke-width:2;stroke-opacity:0.573;}
	.st12{fill-opacity:0.345;}
	.st13{fill:#010101;fill-opacity:7.100000e-02;}
	.st14{fill-opacity:0.529;}
	.st15{fill-opacity:0.694;}
	.st16{fill-opacity:0.639;}
	.st17{fill-opacity:0.945;}
	.st18{fill-opacity:0.235;}
	.st19{fill-opacity:0.882;}
	.st20{fill-opacity:0.431;}
	.st21{fill-opacity:0.749;}
	.st22{fill-opacity:0.141;}
	.st23{fill-opacity:0.804;}
</style>
<g>
	<path d="M85.4,602.6H47l-5.4,19H14l36.1-111.7h33.7L119,621.6H90.6L85.4,602.6z M79.5,581.3l-13.2-48l-13.5,48H79.5z"/>
	<path d="M216.4,509.9v111.7h-27.9l-34.8-66.9v66.9H129V509.9h29.5l33,66v-66H216.4z"/>
	<path d="M230,565.8c0-42.3,15.3-57.4,48.3-57.4c32.2,0,48.3,15.1,48.3,57.4s-15.9,57.3-48.1,57.3C245.4,623.1,230,608.1,230,565.8z
		 M298,565.8c0-28.3-6-34.6-19.8-34.6s-19.8,6.3-19.8,34.6c0,28.2,5.9,34.5,19.9,34.5C292,600.3,298,594,298,565.8z"/>
	<path d="M427.6,509.9v111.7h-27.9L365,554.7v66.9h-24.7V509.9h29.5l33,66v-66H427.6z"/>
	<path d="M535.5,509.9l-34.8,64v47.7h-26.5v-47.2l-35.5-64.5h30.3l18.6,40.9l18.4-40.9H535.5z"/>
	<path d="M546.6,509.9h34.8l18.8,72.1l19.6-72.1h33.7v111.7h-24.1v-67.8L610,621.6h-20.8l-18.4-67.3v67.3h-24.1V509.9z"/>
	<path d="M668.5,509.9h27.7v111.7h-27.7V509.9z"/>
	<path d="M710.5,600.8l52-69.3h-51v-21.6h81.7v20.8L742.5,600h53.1v21.6h-85V600.8z"/>
	<path d="M883.2,600v21.6h-73.3V509.9h73v21.6h-45.3v22.2h38.8v21.6h-38.8V600H883.2z"/>
	<path d="M897.4,509.9H936c32.7,0,48.1,13.8,48.1,55.9c0,42.3-15.6,55.8-48.1,55.8h-38.5V509.9z M936.3,600c13.5,0,19.5-6,19.5-34.2
		c0-28.3-5.7-34.3-19.8-34.3h-10.8V600H936.3z"/>
</g>
<g>
	<path d="M154.3,698.6c0,15.9-5.2,21.5-13.7,21.5c-6.3,0-10.8-4.8-11.8-6l-0.5,5.1h-4.2v-57.8h5.3v21.1c1.6-1.6,5.7-5.4,11.3-5.4
		C149.1,677.1,154.3,682.7,154.3,698.6z M148.9,698.6c0-13-3.5-16.3-9.4-16.3c-4.9,0-8.7,4-10.1,5.7v21.2c1.4,1.8,5.3,5.7,10.1,5.7
		C145.4,715,148.9,711.6,148.9,698.6z"/>
	<path d="M190.6,677.9l-14.1,47.6c-1.6,5.6-5.1,8.5-10.7,8.5h-1.4V729h0.8c3.5,0,5.2-1.3,6.3-4.8l1.9-5.7l-13.4-40.5h5.7l10.3,33.3
		l9.2-33.3H190.6z"/>
	<path d="M216,718.3l0.3-5.4c0,0,2.6,1.7,6.1,1.7c5.1,0,7.6-3.1,7.6-9.1v-44h5.7v44.1c0,9.9-4.9,14.5-13,14.5
		C218.6,720.1,216,718.3,216,718.3z"/>
	<path d="M273.8,677.9l-12.4,41.4h-5.9L243,677.9h5.6l9.9,34.9l9.8-34.9H273.8z"/>
	<path d="M281,661.5h8.3l13.5,49.2l13.5-49.2h8.3v57.9h-5.4v-48.9l-13.8,48.9H300l-13.6-48.8v48.8H281V661.5z"/>
	<path d="M367.8,667H353v52.3h-5.7V667h-14.6v-5.5h35.1V667z"/>
	<path d="M407.2,713.8v5.5h-31.4v-57.9H407v5.5h-25.4v19.9h22.6v5.5h-22.6v21.4H407.2z"/>
	<path d="M415.5,690.4c0-22,7.4-29.7,21.6-29.7c8,0,12.4,2.9,12.4,2.9l-1.4,5.1c0,0-3.8-2.4-10.3-2.4c-10.9,0-16.3,5.4-16.3,24.1
		c0,18.6,5.4,24.1,16.3,24.1c6.4,0,10.3-2.4,10.3-2.4l1.4,5.1c0,0-4.4,2.9-12.4,2.9C422.9,720.1,415.5,712.4,415.5,690.4z"/>
	<path d="M494.1,661.5v57.9h-5.8v-27h-24.9v27h-5.8v-57.9h5.8v25.4h24.9v-25.4H494.1z"/>
	<path d="M503.6,716c0-3,1.6-4,3.3-4c1.8,0,3.4,1.1,3.4,4s-1.6,4.1-3.4,4.1C505.2,720.1,503.6,718.9,503.6,716z"/>
	<path d="M550.6,706.7h-23.7l-3.9,12.7h-5.9l18.4-57.9h6.8l18.3,57.9h-6.2L550.6,706.7z M548.9,701.3l-10.2-33.2l-10.3,33.2H548.9z"
		/>
	<path d="M595.9,690.5v28.8h-5.3v-28.2c0-5.6-2.3-8.8-7.4-8.8c-4.6,0-8.6,3.9-10.1,5.6v31.4h-5.2v-41.4h4.1l0.5,5.2
		c1-1.1,5.7-6,11.9-6C590.8,677.1,595.9,680.7,595.9,690.5z"/>
	<path d="M604.4,698.6c0-16,5.9-21.3,15.7-21.3c9.7,0,15.6,5.3,15.6,21.3c0,16.1-5.9,21.5-15.6,21.5
		C610.3,720.1,604.4,714.7,604.4,698.6z M630.3,698.6c0-12.6-3.3-16.2-10.2-16.2c-6.7,0-10.3,3.6-10.3,16.2
		c0,12.7,3.6,16.4,10.5,16.4C626.9,715,630.3,711.2,630.3,698.6z"/>
	<path d="M672.4,690.5v28.8h-5.3v-28.2c0-5.6-2.3-8.8-7.4-8.8c-4.6,0-8.6,3.9-10.1,5.6v31.4h-5.2v-41.4h4.1l0.5,5.2
		c1-1.1,5.7-6,11.9-6C667.3,677.1,672.4,680.7,672.4,690.5z"/>
	<path d="M709.7,677.9l-14.1,47.6c-1.6,5.6-5.1,8.5-10.7,8.5h-1.4V729h0.8c3.5,0,5.2-1.3,6.3-4.8l1.9-5.7l-13.4-40.5h5.7l10.3,33.3
		l9.2-33.3H709.7z"/>
	<path d="M762.8,689.9v29.4h-5.3v-28.8c0-5.2-1.6-8.2-6-8.2c-4.2,0-7.4,3.4-9,5.4c0.1,0.6,0.1,1.3,0.1,2v29.6h-5.3v-28.8
		c0-5.2-1.5-8.2-5.9-8.2c-4.4,0-7.9,3.8-9.4,5.7v31.3h-5.3v-41.4h4.2l0.5,5.1c0.9-1.1,5.1-5.9,11.1-5.9c4,0,7.2,2.2,8.9,6.3v-0.1
		c0,0,4.4-6.2,11.3-6.2C758.3,677.1,762.8,681.8,762.8,689.9z"/>
	<path d="M771.7,664.6c0-2.9,1.6-3.9,3.3-3.9c1.8,0,3.4,1,3.4,3.9c0,2.8-1.6,4-3.4,4C773.2,668.5,771.7,667.4,771.7,664.6z
		 M772.4,677.9h5.3v41.4h-5.3V677.9z"/>
	<path d="M814.8,714.4v4.9h-28v-4.6l20.8-31.9h-20.3v-4.9h26.8v4.7l-20.6,31.8H814.8z"/>
	<path d="M852.8,700.8h-25c0.5,11,5.1,14.1,12.1,14.1c6,0,10.8-3.6,10.8-3.6l1.6,4.4c0,0-5.3,4.3-12.8,4.3
		c-10.1,0-17.1-5.4-17.1-21.5c0-16,5.9-21.3,15.7-21.3c9.4,0,14.8,5,14.8,20.9V700.8z M847.3,696.3c0-10.4-3.3-13.8-9.4-13.8
		c-6.2,0-9.7,3-10.1,13.8H847.3z"/>
	<path d="M880.4,677.4v5.9c0,0-1.8-0.2-2.6-0.2c-5.4,0-9.6,5.7-11,8v28.2h-5.3v-41.4h4.1l0.8,7.4c1.1-1.6,5.5-8.2,11.3-8.2
		C879,677.1,880.4,677.4,880.4,677.4z"/>
</g>
<g>
	<g>
		<path vector-effect="non-scaling-stroke" class="st0" d="M584.2,55.7L584,63c0,0.3-0.1,0.3-0.2,0c0-0.1-0.1-0.2-0.1-0.3
			c0-0.1-0.1-0.1-0.1,0c-0.7,1.9-9.4,1.2-11.4,1.3c-0.7,0-1-0.3-1-0.9l0.4-9.9c0-1.1-0.8-2.1-2-2.1c0,0,0,0,0,0l-10.2-0.2"/>
		<path vector-effect="non-scaling-stroke" class="st1" d="M559.3,50.9l-0.2,0.2"/>
		<path vector-effect="non-scaling-stroke" class="st2" d="M584.3,77l0.2,13.2"/>
		<path vector-effect="non-scaling-stroke" class="st1" d="M584.6,90.2c-0.5,4.2-0.5,8.4,0.1,12.6"/>
		<path vector-effect="non-scaling-stroke" class="st3" d="M584.6,102.7l-0.1,12.2"/>
		<path vector-effect="non-scaling-stroke" class="st1" d="M584.6,114.9l-0.8,0.5"/>
		<path vector-effect="non-scaling-stroke" class="st4" d="M583.8,115.4l-12.2-0.3"/>
		<path vector-effect="non-scaling-stroke" class="st4" d="M571.5,115.2l-0.1-11.9c0-0.3-0.2-0.5-0.5-0.5c-4.1-0.3-8.2-0.2-12.3,0.3
			"/>
		<path vector-effect="non-scaling-stroke" class="st5" d="M558.7,103c-3.6-0.7-7.3-0.9-11.2-0.5c-0.8,0.1-1.4,0.8-1.4,1.6l0.2,11.3
			"/>
		<path vector-effect="non-scaling-stroke" class="st4" d="M546.3,115.4l-0.2,12.5"/>
		<path vector-effect="non-scaling-stroke" class="st6" d="M546.1,127.9l-0.1,13"/>
		<path vector-effect="non-scaling-stroke" class="st7" d="M546,140.9c-0.1,0.1-0.2,0.2-0.3,0.4c0,0.1-0.1,0.1-0.2,0
			c-0.8-0.7-10.1-0.1-11.8-0.2c-0.4,0-0.7,0.3-0.7,0.7c0,0,0,0,0,0l-0.2,11.8"/>
		<path vector-effect="non-scaling-stroke" class="st8" d="M532.8,153.6l-11.2,0.2"/>
		<path vector-effect="non-scaling-stroke" class="st4" d="M521.5,153.9l-1.5,0.1"/>
		<path vector-effect="non-scaling-stroke" class="st8" d="M520,153.9l-11.9-0.2c-0.2,0-0.4,0.2-0.4,0.4v204.3"/>
		<path vector-effect="non-scaling-stroke" class="st7" d="M507.7,358.5l-11.8-0.4c-0.4,0-0.6-0.2-0.6-0.6
			c-0.2-2.2,0.4-11.3-0.5-12.1"/>
		<path vector-effect="non-scaling-stroke" class="st6" d="M494.7,332.4v-25"/>
		<path vector-effect="non-scaling-stroke" class="st2" d="M494.7,307.4v-26"/>
		<path vector-effect="non-scaling-stroke" class="st9" d="M494.7,281.4l-0.2-12.7"/>
		<path vector-effect="non-scaling-stroke" class="st7" d="M494.5,268.7l0.2-12c0-0.4-0.2-0.5-0.5-0.5l-12.2-0.1
			c-0.3,0-0.5,0.2-0.5,0.5c0,0,0,0,0,0l0.2,11.2c0,0.3-0.1,0.6-0.4,0.7l-0.7,0.3"/>
		<path vector-effect="non-scaling-stroke" class="st6" d="M480.5,268.9l-11.8,0.1"/>
		<path vector-effect="non-scaling-stroke" class="st4" d="M468.8,268.9l-11.7,0"/>
		<path vector-effect="non-scaling-stroke" class="st5" d="M457.1,268.9l-11.6-0.2c-0.9,0-1.6,0.7-1.6,1.5c0,0,0,0,0,0l0,10.4
			c0,0.4-0.2,0.6-0.6,0.7l-1.2,0.2"/>
		<path vector-effect="non-scaling-stroke" class="st8" d="M442,281.6l-10,0.2"/>
		<path vector-effect="non-scaling-stroke" class="st3" d="M432,281.9l-0.5-0.3c-0.3-0.2-0.4-0.4-0.4-0.8l-0.3-24.6"/>
		<path vector-effect="non-scaling-stroke" class="st9" d="M430.7,256.2l0.1-23"/>
		<path vector-effect="non-scaling-stroke" class="st5" d="M430.8,233.2l0.2-2c0-0.3,0.2-0.5,0.5-0.5l11.1,0c0.6,0,1.1-0.5,1.2-1.1
			c0.4-3.9,0.3-7.9-0.4-11.9"/>
		<path vector-effect="non-scaling-stroke" class="st8" d="M443.5,217.7v-12.8"/>
		<path vector-effect="non-scaling-stroke" class="st1" d="M444,204.7l12.1-0.1c0.2,0,0.4-0.2,0.4-0.4l0.2-11.2
			c0-0.4,0.2-0.7,0.7-0.7l9.7-0.2"/>
		<path vector-effect="non-scaling-stroke" class="st2" d="M467,192.1l1.7,0.1"/>
		<path vector-effect="non-scaling-stroke" class="st5" d="M468.7,192.2l12.4,0.1c0.5,0,0.7-0.2,0.7-0.7l0.1-10.8
			c0-1,0.5-1.5,1.5-1.5l10.5-0.2"/>
		<path vector-effect="non-scaling-stroke" class="st3" d="M493.8,179.2l0.5-0.4c0.3-0.2,0.4-0.5,0.4-0.9l-0.2-11.3"/>
		<path vector-effect="non-scaling-stroke" class="st9" d="M494.5,166.7l0.3-12"/>
		<path vector-effect="non-scaling-stroke" class="st10" d="M494.8,154.7l0.6-0.8c0.2-0.3,0.6-0.4,0.9-0.4l10-0.1
			c0.6,0,1.1-0.5,1.2-1.1c0-2.1,0-4.2,0-6.4c0-1.6-1-3.4,0-5.4"/>
		<path vector-effect="non-scaling-stroke" class="st1" d="M507.5,140.4l0.1-12.1"/>
		<path vector-effect="non-scaling-stroke" class="st11" d="M507.5,128.3l0.1-12.4"/>
		<path vector-effect="non-scaling-stroke" class="st8" d="M508.1,114.4c3.9,0.9,7.9,1.1,11.9,0.5"/>
		<path vector-effect="non-scaling-stroke" class="st10" d="M520,114.9l0.9-11.9c0-0.3,0.2-0.5,0.5-0.5l10.3-0.2c0.5,0,1-0.4,1-1
			c0.2-2.3-0.3-10.4,0.7-12c0.2-0.3,0.3-0.6,0.3-0.9V78.4c0-0.4,0.2-0.7,0.7-0.7l11.6-0.8"/>
		<path vector-effect="non-scaling-stroke" class="st1" d="M546,76.8l-0.1-6.9"/>
		<path vector-effect="non-scaling-stroke" class="st8" d="M559.1,51.2c-1.1,1.4-0.5,9-0.5,11.1c0,1-0.8,1.8-1.7,1.8c0,0,0,0,0,0
			l-9.6,0c-0.4,0-0.7,0.2-0.7,0.7l-0.5,5.2"/>
		<path vector-effect="non-scaling-stroke" class="st3" d="M431,294.2c-1,0-0.5-10.4-0.5-11.8c0-0.4-0.2-0.6-0.6-0.6l-12-0.8"/>
		<path vector-effect="non-scaling-stroke" class="st2" d="M481.5,371.2l-12.2,0"/>
		<path vector-effect="non-scaling-stroke" class="st1" d="M482.5,371.7c-0.6,4-0.8,7.9-0.5,12"/>
		<path vector-effect="non-scaling-stroke" class="st3" d="M482.1,383.7l0,26.2"/>
		<path vector-effect="non-scaling-stroke" class="st10" d="M482,409.9c-1.7,0.5-3.2-0.3-4.7-0.3c-2.8,0-5.5,0.1-8.3,0.5"/>
		<path vector-effect="non-scaling-stroke" class="st11" d="M469.1,410.2c-0.1-0.1-0.1-0.1-0.2-0.2c-0.1-0.2-0.3-0.3-0.5-0.3
			l-11.4,0.1"/>
		<path vector-effect="non-scaling-stroke" class="st6" d="M457,409.7l-41.3-0.1"/>
		<path vector-effect="non-scaling-stroke" class="st10" d="M415.7,409.6c-0.4-1,0.1-1.6,1.5-1.7c0.4,0,0.5-0.2,0.5-0.6l-0.1-9.4
			c0-0.3,0.3-0.6,0.6-0.6h24.2c0.3,0,0.5-0.1,0.8-0.2l0.4-0.2c0.3-0.2,0.6-0.3,0.9-0.3l10.4-0.1c0.4,0,0.6-0.2,0.6-0.6l0.2-5.9
			c0-0.4,0.1-0.7,0.2-1c0.5-1.3,0.6-2.6,0.2-4c-0.1-0.3,0-0.4,0.4-0.4c0.7,0.1,1.3,0,1.9-0.5"/>
		<path vector-effect="non-scaling-stroke" class="st2" d="M458.5,384.2l9.5-0.1c0.4,0,0.6-0.2,0.6-0.6c0.4-3.9,0.4-7.7,0.1-11.6"/>
		<path vector-effect="non-scaling-stroke" class="st7" d="M417.7,371.4l-9.7-0.2c-0.3,0-0.5-0.1-0.7-0.3c-0.2-0.2-0.5-0.3-0.9-0.2
			c-0.4,0.1-0.6-0.1-0.6-0.5c0-1.4,0.3-11.5-0.5-11.8"/>
		<path vector-effect="non-scaling-stroke" class="st6" d="M405.3,358.4v-12.2"/>
		<path vector-effect="non-scaling-stroke" class="st2" d="M417.8,357.9v-12"/>
		<path vector-effect="non-scaling-stroke" class="st8" d="M431,294.2l0.3,0.5"/>
		<path vector-effect="non-scaling-stroke" class="st9" d="M431.3,294.6c-0.9,0.9-0.5,11.1-0.5,12.9"/>
		<path vector-effect="non-scaling-stroke" class="st6" d="M430.8,307.5l0.2,12.1"/>
		<path vector-effect="non-scaling-stroke" class="st3" d="M431,319.7c-2.3,1.5-9.3,0.8-12.3,0.8c-0.1,0-0.4-0.1-0.7-0.4
			c-0.1-0.1-0.2-0.2-0.3-0.4"/>
		<path vector-effect="non-scaling-stroke" class="st4" d="M417.7,319.7v-12.2"/>
		<path vector-effect="non-scaling-stroke" class="st2" d="M417.7,307.4v-12.5"/>
		<path vector-effect="non-scaling-stroke" class="st1" d="M417.8,345.9l-0.1-0.5"/>
		<path vector-effect="non-scaling-stroke" class="st5" d="M417.5,345.4l-11,0.3c-0.3,0-0.5,0.1-0.7,0.2l-0.5,0.3"/>
		<path vector-effect="non-scaling-stroke" class="st3" d="M417.7,345.4c-0.1,0-0.1,0-0.2,0"/>
		<path vector-effect="non-scaling-stroke" class="st11" d="M584.6,269.2c-4.5-0.4-9-0.4-13.3-0.1"/>
		<path vector-effect="non-scaling-stroke" class="st9" d="M571.3,269.2l-0.1,12.2"/>
		<path vector-effect="non-scaling-stroke" class="st8" d="M584.6,269.2l-0.1,12.2"/>
		<path vector-effect="non-scaling-stroke" class="st5" d="M584.5,281.4l-0.1,12.5c0,0.4-0.2,0.6-0.6,0.6l-12.3,0.1"/>
		<path vector-effect="non-scaling-stroke" class="st6" d="M571.5,294.4l-0.2-13"/>
		<path vector-effect="non-scaling-stroke" class="st5" d="M597.2,296.4c-0.1-0.5-0.3-1-0.7-1.4c-0.2-0.3-0.5-0.4-0.8-0.4h-10.5
			c-0.5,0-0.9,0.4-0.9,0.9c0,0,0,0.1,0,0.1c0.4,4,0.2,7.9-0.4,11.8"/>
		<path vector-effect="non-scaling-stroke" class="st9" d="M597.3,310.4l-0.1-14"/>
		<path vector-effect="non-scaling-stroke" class="st1" d="M597.3,310.4v11.2"/>
		<path vector-effect="non-scaling-stroke" class="st3" d="M597.3,321.7l-0.3,10.8c0,0.3-0.2,0.5-0.5,0.6c-4.1,0.4-8.2,0.2-12.2-0.6
			"/>
		<path vector-effect="non-scaling-stroke" class="st4" d="M584,319.7c0.5-4.1,0.5-8.2,0-12.2"/>
		<path vector-effect="non-scaling-stroke" class="st3" d="M609.8,345.3c-4.1,0.7-8.3,0.9-12.5,0.6"/>
		<path vector-effect="non-scaling-stroke" class="st4" d="M597.2,345.9l-0.3,12.5"/>
		<path vector-effect="non-scaling-stroke" class="st6" d="M597,358.4l0.3,12"/>
		<path vector-effect="non-scaling-stroke" class="st9" d="M609.8,358.9l-0.1,12.2"/>
		<path vector-effect="non-scaling-stroke" class="st10" d="M609.7,371.2l-0.3,1.3c-0.1,0.6-0.3,0.7-0.6,0.1l-0.2-0.4
			c-0.2-0.3-0.4-0.5-0.8-0.6c-2.1-0.3-9.5,0.2-10.5-1.1"/>
	</g>
	<path class="st12" d="M584.2,25.9v12.5c-0.1,0-0.1,0-0.2,0l-12.8-0.1c0.7-0.8,0.2-10.3,0.3-12.1c0-0.3,0.2-0.5,0.5-0.5L584.2,25.9z
		"/>
	<path class="st13" d="M597.9,38.5c-0.5,4-0.5,8-0.3,12c0,0.3,0.2,0.5,0.5,0.5c3.9,0.4,7.8,0.3,11.6-0.5l-0.1,13
		c0,0.4-0.2,0.6-0.6,0.6h-11.7c-0.6,0-1.2,0.5-1.2,1.1c0,0,0,0,0,0l0.1,7.7c0,0.4-0.2,0.6-0.6,0.6l-7-0.2c-0.3,0-0.5-0.2-0.5-0.5
		l-0.3-4c0-0.3,0-0.6,0.1-0.9c0.5-1.3,0.2-2.5-0.7-3.6c-0.2-0.2-0.3-0.5-0.3-0.8c-0.2-2.9-0.3-5.9-0.3-8.8c-0.1-3,0.9-6.3,0.6-9.7
		c-0.2-2.3,1-5.4-1.7-7.2c-0.2-0.2-0.5-0.1-0.7,0.1c-0.1,0.1-0.1,0.2-0.1,0.3c0.1,8.5,0.1,16.6,0,24.3c-0.1,4.2-0.1,4.2-0.2,0
		l-0.2-22.6l-0.1-1.5V25.9l11.5,0c0.9,0,1.6,0.7,1.6,1.6c0,0,0,0,0,0.1l-0.3,9.6c0,0.4-0.2,0.7-0.4,1c-0.5,0.5-0.9,1-1.2,1.5
		c-1.2,1.9-1.1,13.4,1.1,12.2c0.3-0.2,0.5-0.4,0.5-0.8l0.1-11.9c0-0.5,0.4-0.8,0.8-0.9c3.6-0.1,7.2-0.1,10.9,0
		c1.7,0.1,1.7,0.1,0,0.2L597.9,38.5z"/>
	<path class="st14" d="M571.3,38.4l12.8,0.1l-12.3,0.2c-0.5,0-0.7,0.2-0.7,0.7v11c0,0.3-0.2,0.4-0.5,0.4c-1.2-0.2-10.5-0.3-10.8-0.8
		c-0.2-0.2-0.3-0.2-0.5,0c-0.1,0.3-0.1,0.5,0,0.8l-0.2,0.2l-0.1-1.5l-0.1-10.6c0-0.4,0.2-0.6,0.6-0.6L571.3,38.4z"/>
	<path class="st15" d="M584,38.4c0.1,0,0.1,0,0.2,0l0.1,1.5l-0.1,15.8L584,63c0,0.3-0.1,0.3-0.2,0c0-0.1-0.1-0.2-0.1-0.3
		c0-0.1-0.1-0.1-0.1,0c-0.7,1.9-9.4,1.2-11.4,1.3c-0.7,0-1-0.3-1-0.9l0.4-9.9c0-1.1-0.8-2.1-2-2.1c0,0,0,0,0,0l-10.2-0.2
		c-0.1-0.3-0.1-0.6,0-0.8c0.1-0.3,0.3-0.3,0.5,0c0.3,0.4,9.6,0.6,10.8,0.8c0.3,0,0.5-0.1,0.5-0.4v-11c0-0.5,0.2-0.7,0.7-0.7
		L584,38.4z"/>
	<path class="st12" d="M597.9,38.5l11,0.1c0.5,0,0.9,0.4,0.9,0.9l0,11.1c-3.8,0.7-7.7,0.9-11.6,0.5c-0.3,0-0.5-0.2-0.5-0.5
		C597.3,46.6,597.4,42.6,597.9,38.5z"/>
	<path class="st16" d="M559,49.7l0.1,1.5c-1.1,1.4-0.5,9-0.5,11.1c0,1-0.8,1.8-1.7,1.8c0,0,0,0,0,0l-9.6,0c-0.4,0-0.7,0.2-0.7,0.7
		l-0.5,5.2c-0.4-1.9-0.3-3.8,0-5.7l0-12.4c0-0.4,0.2-0.6,0.6-0.6h11.6c0.3,0,0.5-0.2,0.6-0.5L559,49.7z"/>
	<path d="M559.3,50.9l10.2,0.2c1.1,0,2.1,1,2,2.1c0,0,0,0,0,0l-0.4,9.9c0,0.7,0.3,1,1,0.9c2.1-0.1,10.7,0.5,11.4-1.3
		c0.1-0.1,0.1-0.1,0.1,0c0,0.1,0.1,0.2,0.1,0.3c0.1,0.3,0.2,0.3,0.2,0l0.2-7.3l0.1,21.4l0.2,13.2c-0.5,4.2-0.5,8.4,0.1,12.6
		l-0.1,12.2l-0.8,0.5l-12.2-0.3l-0.1-11.9c0-0.3-0.2-0.5-0.5-0.5c-4.1-0.3-8.2-0.2-12.3,0.3c-3.6-0.7-7.3-0.9-11.2-0.5
		c-0.8,0.1-1.4,0.8-1.4,1.6l0.2,11.3l-0.2,12.5l-0.1,13c-0.1,0.1-0.2,0.2-0.3,0.4c0,0.1-0.1,0.1-0.2,0c-0.8-0.7-10.1-0.1-11.8-0.2
		c-0.4,0-0.7,0.3-0.7,0.7c0,0,0,0,0,0l-0.2,11.8l-11.2,0.2l-1.5,0.1l-11.9-0.2c-0.2,0-0.4,0.2-0.4,0.4v204.3l-11.8-0.4
		c-0.4,0-0.6-0.2-0.6-0.6c-0.2-2.2,0.4-11.3-0.5-12.1l-0.1-13v-25v-26l-0.2-12.7l0.2-12c0-0.4-0.2-0.5-0.5-0.5l-12.2-0.1
		c-0.3,0-0.5,0.2-0.5,0.5c0,0,0,0,0,0l0.2,11.2c0,0.3-0.1,0.6-0.4,0.7l-0.7,0.3l-11.8,0.1l-11.7,0l-11.6-0.2c-0.9,0-1.6,0.7-1.6,1.5
		c0,0,0,0,0,0l0,10.4c0,0.4-0.2,0.6-0.6,0.7l-1.2,0.2l-10,0.2l-0.5-0.3c-0.3-0.2-0.4-0.4-0.4-0.8l-0.3-24.6l0.1-23l0.2-2
		c0-0.3,0.2-0.5,0.5-0.5l11.1,0c0.6,0,1.1-0.5,1.2-1.1c0.4-3.9,0.3-7.9-0.4-11.9v-12.8l0.5-0.2l12.1-0.1c0.2,0,0.4-0.2,0.4-0.4
		l0.2-11.2c0-0.4,0.2-0.7,0.7-0.7l9.7-0.2l1.7,0.1l12.4,0.1c0.5,0,0.7-0.2,0.7-0.7l0.1-10.8c0-1,0.5-1.5,1.5-1.5l10.5-0.2l0.5-0.4
		c0.3-0.2,0.4-0.5,0.4-0.9l-0.2-11.3l0.3-12l0.6-0.8c0.2-0.3,0.6-0.4,0.9-0.4l10-0.1c0.6,0,1.1-0.5,1.2-1.1c0-2.1,0-4.2,0-6.4
		c0-1.6-1-3.4,0-5.4l0.1-12.1l0.1-12.4l0.4-1.6c3.9,0.9,7.9,1.1,11.9,0.5l0.9-11.9c0-0.3,0.2-0.5,0.5-0.5l10.3-0.2c0.5,0,1-0.4,1-1
		c0.2-2.3-0.3-10.4,0.7-12c0.2-0.3,0.3-0.6,0.3-0.9V78.4c0-0.4,0.2-0.7,0.7-0.7l11.6-0.8l-0.1-6.9l0.5-5.2c0-0.4,0.3-0.7,0.7-0.7
		l9.6,0c1,0,1.8-0.8,1.8-1.7c0,0,0,0,0,0c0-2.1-0.5-9.8,0.5-11.1L559.3,50.9z"/>
	<path class="st14" d="M546,64.2c-0.4,1.9-0.4,3.8,0,5.7l0.1,6.9c-4.3-0.4-8.6-0.3-12.7,0.3l0-12.5l0.3-0.3c0.2-0.2,0.4-0.3,0.6-0.3
		L546,64.2z"/>
	<path class="st12" d="M533.3,64.7l0,12.5l0,11.8c0,0.4-0.4,0.8-0.8,0.8c0,0,0,0,0,0l-11.6-0.1c-0.3,0-0.5,0.1-0.5,0.5l-0.1,1.9
		l-0.2-2V78c0-0.6,0.5-1.1,1.1-1.1c0,0,0,0,0,0l11,0.2c0.5,0,1-0.4,1-1c0,0,0,0,0,0L533.3,64.7z"/>
	<path class="st17" d="M546,76.8l-11.6,0.8c-0.4,0-0.7,0.3-0.7,0.7v10.1c0,0.3-0.1,0.6-0.3,0.9c-1,1.5-0.5,9.7-0.7,12
		c-0.1,0.5-0.5,1-1,1l-10.3,0.2c-0.3,0-0.5,0.2-0.5,0.5l-0.9,11.9v-12.5l0.2-10.5l0.1-1.9c0-0.3,0.2-0.5,0.5-0.5l11.6,0.1
		c0.4,0,0.8-0.3,0.8-0.8c0,0,0,0,0,0l0-11.8C537.5,76.5,541.7,76.4,546,76.8z"/>
	<path class="st18" d="M584.3,77l12.4-0.1c0.3,0,0.6,0.3,0.6,0.6c0,0,0,0,0,0l0,25.1c-0.1,0-0.1,0-0.2,0l0-12.3
		c0-0.3-0.2-0.5-0.5-0.6c-4-0.4-8-0.3-12,0.3L584.3,77z"/>
	<path class="st13" d="M520,89.9l0.2,2l-0.2,10.5l-11.3,0.3c-0.4,0-0.7,0.2-0.7,0.7l0,10.3l0.2-23c0-0.5,0.4-0.9,0.9-0.9
		c0,0,0,0,0,0L520,89.9z"/>
	<path class="st14" d="M597.1,102.7l-12.4,0.1c-0.6-4.2-0.6-8.4-0.1-12.6c4-0.7,8-0.8,12-0.3c0.3,0,0.5,0.2,0.5,0.6L597.1,102.7z"/>
	<path class="st16" d="M520,102.4v12.5c-4,0.6-8,0.4-11.9-0.5l-0.1-0.8l0-10.3c0-0.4,0.2-0.7,0.7-0.7L520,102.4z"/>
	<path class="st19" d="M558.7,103l0,11.6c0,0.3-0.2,0.5-0.5,0.5l-11.9,0.2l-0.2-11.3c0-0.8,0.6-1.5,1.4-1.6
		C551.4,102.2,555.1,102.3,558.7,103z"/>
	<path class="st20" d="M571.5,115.2l-12.2,0c-0.4,0-0.6,0.2-0.6,0.6l0,11.7l-0.3,0.2c-0.2,0.1-0.4,0.2-0.6,0.2l-11.8,0.1l0.2-12.5
		l11.9-0.2c0.3,0,0.5-0.2,0.5-0.5l0-11.6c4.1-0.5,8.2-0.6,12.3-0.3c0.3,0,0.5,0.2,0.5,0.5L571.5,115.2z"/>
	<path class="st21" d="M584.6,102.7l12.4-0.1c0.1,0,0.1,0,0.2,0v12.8c-0.2-0.1-0.2-0.3-0.2-0.6c0.1-0.7,0-0.7-0.2-0.1
		c0,0.1-0.1,0.2-0.1,0.3c0,0.1-0.1,0.2-0.2,0.2l-11.9-0.3L584.6,102.7z"/>
	<path class="st14" d="M597.2,115.4l0,12c0,0.4-0.2,0.6-0.6,0.6l-6.6,0.1l-5.7-0.3c-0.3,0-0.5-0.2-0.5-0.5l-0.1-11.9l0.8-0.5
		l11.9,0.3c0.1,0,0.2-0.1,0.2-0.2c0-0.1,0.1-0.2,0.1-0.3c0.2-0.6,0.3-0.6,0.2,0.1C597,115.1,597.1,115.3,597.2,115.4z"/>
	<path class="st20" d="M571.5,115.2l12.2,0.3l0.1,11.9c0,0.3,0.2,0.5,0.5,0.5l5.7,0.3l-18.1,0c-0.4,0-0.6-0.2-0.6-0.6L571.5,115.2z"
		/>
	<path class="st22" d="M507.7,116l-0.1,12.4l-12.2-0.4c-0.4-3.9-0.5-7.9-0.2-11.9c0-0.3,0.2-0.5,0.5-0.5
		C499.7,115.2,503.7,115.4,507.7,116z"/>
	<path class="st13" d="M558.7,127.4l-0.3,12.5c0,0.3-0.2,0.5-0.5,0.5l-9.4,0.3c-0.3,0-0.5-0.1-0.6-0.5c-0.1-0.6-0.5-0.9-1.1-0.9
		c-0.3,0-0.5,0.2-0.5,0.5l-0.2,1.5l-0.1-0.5l0.1-13l11.8-0.1c0.2,0,0.4-0.1,0.6-0.2L558.7,127.4z"/>
	<path class="st14" d="M495.3,127.9l12.2,0.4l-0.1,12.1c-4.1,0.5-8.3,0.5-12.5-0.1L495.3,127.9z"/>
	<path class="st17" d="M495,140.3c4.2,0.6,8.3,0.6,12.5,0.1c-1,2,0,3.8,0,5.4c0,2.2,0,4.3,0,6.4c0,0.6-0.5,1.1-1.2,1.1l-10,0.1
		c-0.4,0-0.7,0.2-0.9,0.4l-0.6,0.8l-0.1-0.8L495,140.3z"/>
	<path class="st23" d="M546,140.9l0.1,0.5l-0.1,12.3l-13.1-0.1l0.2-11.8c0-0.4,0.3-0.7,0.7-0.7c0,0,0,0,0,0c1.7,0.1,11-0.5,11.8,0.2
		c0.1,0.1,0.2,0.1,0.2,0C545.8,141.1,545.8,141,546,140.9z"/>
	<path class="st16" d="M545.9,153.7l0.1,12.2c-0.1,0.1-0.2,0.2-0.3,0.3c-0.2,0.1-0.5,0.2-0.7,0.2l-10.7,0c-0.6,0-1-0.5-1-1
		l-0.1-10.9c0-0.4-0.2-0.6-0.6-0.6l-11.1,0l11.2-0.2L545.9,153.7z"/>
	<path class="st12" d="M494.7,153.9l0.1,0.8l-0.3,12l-11.7-0.4c-0.5,0-0.7,0.2-0.7,0.7l-0.1,2.2l0.1-14.7c0-0.4,0.3-0.7,0.7-0.7
		c0,0,0,0,0,0L494.7,153.9z"/>
	<path class="st16" d="M520,153.9l0,12.7c-0.1,77.4-0.1,154.8,0,232.2c0,2.6,0.4,6.7-0.1,10.3c-0.1,0.3-0.2,0.5-0.6,0.5h-11.6
		l0-37.5c0-0.4-0.2-0.6-0.6-0.7l-1.7-0.2l1.6-0.1c0.4,0,0.6-0.2,0.6-0.6l0-11.9V154.2c0-0.2,0.2-0.4,0.4-0.4L520,153.9z"/>
	<path class="st20" d="M521.5,153.9l11.1,0c0.4,0,0.6,0.2,0.6,0.6l0.1,10.9c0,0.6,0.5,1,1,1l10.7,0c0.3,0,0.5-0.1,0.7-0.2
		c0.1-0.1,0.2-0.2,0.3-0.3v13.2l-12.1,0.2c-0.4,0-0.5-0.2-0.5-0.5l-0.1-11.3c0-0.7-0.4-1-1.1-1l-11.7,0.2l-0.5,0l0-12.7L521.5,153.9
		z"/>
	<path class="st21" d="M494.5,166.7l0.2,11.3c0,0.4-0.1,0.7-0.4,0.9l-0.5,0.4L482,179l0-9.9l0.1-2.2c0-0.5,0.3-0.7,0.7-0.7
		L494.5,166.7z"/>
	<path class="st22" d="M546,179.2l-0.2,10.9c0,1.1-1,2.1-2.1,2.1h-9.2c-0.4,0-0.6-0.2-0.5-0.6c0-0.2,0-0.3-0.2-0.4
		c-0.3-0.2-0.5-0.4-0.5-0.7l-0.5-23.2c0-0.4-0.2-0.5-0.6-0.5l-11.8-0.1l11.7-0.2c0.7,0,1.1,0.3,1.1,1l0.1,11.3
		c0,0.3,0.2,0.5,0.5,0.5L546,179.2z"/>
	<path class="st19" d="M482,179l11.8,0.2l-10.5,0.2c-1,0-1.5,0.5-1.5,1.5l-0.1,10.8c0,0.5-0.2,0.7-0.7,0.7l-12.4-0.1l0.7-13L482,179
		z"/>
	<path class="st18" d="M469.4,179.2l-0.7,13l-1.7-0.1l-10.3-0.1l-0.2-11.5c0-0.6,0.5-1.1,1.1-1.1c0,0,0,0,0,0L469.4,179.2z"/>
	<path class="st14" d="M456.7,192l10.3,0.1l-9.7,0.2c-0.5,0-0.7,0.2-0.7,0.7l-0.2,11.2c0,0.2-0.2,0.4-0.4,0.4l-12.1,0.1l-0.2-11.3
		c0-0.7,0.5-1.2,1.2-1.2c0,0,0,0,0,0L456.7,192z"/>
	<path class="st16" d="M443.5,204.9v12.8l-12.4-0.2l-0.1-11.6c0-0.4,0.2-0.6,0.6-0.6L443.5,204.9z"/>
	<path class="st19" d="M431.1,217.4l12.4,0.2c0.7,4.1,0.8,8,0.4,11.9c-0.1,0.6-0.6,1-1.2,1.1l-11.1,0c-0.3,0-0.5,0.2-0.5,0.5l-0.2,2
		l-0.1-2.2L431.1,217.4z"/>
	<path class="st13" d="M430.5,230.9c-0.4,3.9-0.4,7.9-0.1,12c0,0.4-0.1,0.6-0.5,0.7c-0.3,0.1-0.7,0-1-0.2c-0.3-0.2-0.5-0.3-0.9-0.3
		l-10.1,0l0-11.6c0-0.5,0.4-0.9,0.8-0.9C422.8,230.1,426.7,230.3,430.5,230.9z"/>
	<path class="st12" d="M430.5,230.9c0.1,0,0.1,0,0.2,0l0.1,2.2l-0.1,23l-0.2,0.2c-4.1-0.6-8.3-0.8-12.5-0.4l0.1-12.9l10.1,0
		c0.3,0,0.6,0.1,0.9,0.3c0.3,0.2,0.6,0.3,1,0.2c0.4-0.1,0.5-0.3,0.5-0.7C430.1,238.9,430.1,234.9,430.5,230.9z"/>
	<path class="st14" d="M430.5,256.4l0,11.5c0,0.7-0.3,1-1,1h-9.8c-0.4,0-0.6-0.2-0.8-0.5l-0.3-0.6c-0.3-0.5-0.4-0.5-0.5,0.1
		l-0.3,3.2L418,256C422.2,255.6,426.4,255.8,430.5,256.4z"/>
	<path class="st21" d="M430.7,256.2l0.3,24.6c0,0.3,0.1,0.6,0.4,0.8l0.5,0.3l-0.7,0.1c-0.5,0-0.7,0.3-0.7,0.8l0.3,11.5
		c-1,0-0.5-10.4-0.5-11.8c0-0.4-0.2-0.6-0.6-0.6l-12-0.8l-0.1-9.9l0.3-3.2c0-0.6,0.2-0.6,0.5-0.1l0.3,0.6c0.2,0.3,0.4,0.5,0.8,0.5
		h9.8c0.7,0,1-0.3,1-1l0-11.5L430.7,256.2z"/>
	<path class="st23" d="M494.5,268.7l-12.5,0.2l-1.5-0.1l0.7-0.3c0.3-0.1,0.5-0.4,0.4-0.7l-0.2-11.2c0-0.3,0.2-0.5,0.5-0.5
		c0,0,0,0,0,0l12.2,0.1c0.3,0,0.5,0.2,0.5,0.5L494.5,268.7z"/>
	<path class="st22" d="M596.2,268.9l-11.6,0.3c-4.5-0.4-9-0.4-13.3-0.1c0-0.1-0.1-0.2-0.1-0.2l0.3-0.2c0.3-0.2,0.4-0.4,0.3-0.8
		c-0.6-3.5-0.7-7.1-0.6-10.7c0-0.5,0.5-0.9,1-1l23.8-0.2c0.5,0,1,0.4,1,0.9C597.3,261.1,597,265,596.2,268.9z"/>
	<path class="st19" d="M457.1,268.9l-0.4,0.2c-0.3,0.2-0.4,0.4-0.4,0.7l0,11.5c-2.5,0.2-12.1,0-12.8,0.8l-1.5-0.6l1.2-0.2
		c0.4-0.1,0.6-0.3,0.6-0.7l0-10.4c0-0.9,0.7-1.6,1.6-1.6c0,0,0,0,0,0L457.1,268.9z"/>
	<path class="st13" d="M480.5,268.9l1.5,0.1c0.2,0.1,0.3,0.3,0.5,0.5c0.1,0.1,0.1,0.2,0,0.3c0,0.1-0.1,0.1-0.2,0.2
		c-0.1,0.1-0.2,0.2-0.2,0.4l-0.1,11l0.3,25.6c0,0.3,0.3,0.6,0.6,0.6l9.7,0c0.3,0,0.6-0.3,0.6-0.6c0,0,0,0,0,0c0-1.7-0.5-12.7,0.8-13
		c0.3-0.1,0.5,0.1,0.5,0.4l0.2,13v25l-0.5-1.5c-0.3-0.8-0.5-0.8-0.8,0c-0.2,0.5-0.2,1-0.1,1.5c0,0.3-0.1,0.5-0.4,0.6
		c-0.9,0.4-1.8,0.3-2.5-0.3c-0.2-0.2-0.5-0.3-0.8-0.3l-5.9-0.1c-0.9,0-1.7-0.8-1.7-1.7l-0.4-57.7c0-0.3-0.2-0.4-0.5-0.4
		c-0.8,0.1-0.6,4.9-0.5,5.9c0,0.3-0.1,0.6-0.3,0.9l-1.3,1.5c-0.2,0.2-0.5,0.4-0.8,0.4H471c-0.3,0-0.5-0.2-0.5-0.5v-1
		c0-0.2-0.1-0.3-0.3-0.2l-0.4,0c-0.4,0.1-0.5,0.3-0.4,0.6c0.2,0.7,0,1.2-0.7,1.3c0.4-4.1,0.4-8.3,0-12.4L480.5,268.9z"/>
	<path class="st12" d="M494.5,268.7l0.2,12.7l-0.2-0.2c-0.1-0.1-0.3-0.1-0.4,0l-0.5,0.5c-0.2,0.2-0.4,0.5-0.4,0.9v11.6
		c0,0.3-0.3,0.5-0.6,0.5c0,0,0,0,0,0l-10-0.4c-0.3,0-0.5-0.2-0.5-0.5l-0.2-12.4l0.1-11c0-0.2,0.1-0.3,0.2-0.4
		c0.1-0.1,0.1-0.1,0.2-0.2c0-0.1,0-0.2,0-0.3c-0.1-0.2-0.3-0.4-0.5-0.5L494.5,268.7z"/>
	<path class="st20" d="M457.1,268.9l11.7,0c0.4,4.1,0.4,8.3,0,12.4c-4.1,0.5-8.3,0.5-12.5,0l0-11.5c0-0.3,0.1-0.6,0.4-0.7
		L457.1,268.9z"/>
	<path class="st12" d="M571.2,268.9c0,0.1,0.1,0.2,0.1,0.2l-0.1,12.2l-11.6,0.4c-0.4,0-0.6-0.2-0.6-0.6l0-11.3l0.1-0.4
		c0.1-0.4,0.3-0.6,0.7-0.6L571.2,268.9z"/>
	<path d="M584.6,269.2l-0.1,12.2l-0.1,12.5c0,0.4-0.2,0.6-0.6,0.6l-12.3,0.1c0-0.1-0.1-0.2-0.1-0.2l-0.2-13l0.1-12.2
		C575.6,268.8,580.1,268.8,584.6,269.2z"/>
	<path class="st16" d="M596.2,268.9c0.7,3.8,0.8,7.5,0.5,11.1c-0.4-0.1-0.7,0.2-0.9,0.9c-0.1,0.4-0.4,0.6-0.8,0.6l-10.5-0.1
		l0.1-12.2L596.2,268.9z"/>
	<path class="st13" d="M559,269.9l0,11.3c0,0.4,0.2,0.6,0.6,0.6l11.6-0.4l0.2,13l-12.2-0.3c-0.3,0-0.5-0.2-0.5-0.5L559,269.9z"/>
	<path class="st19" d="M596.7,280.1l0.6,13.4l-0.1,3c-0.1-0.5-0.3-1-0.7-1.4c-0.2-0.3-0.5-0.4-0.8-0.4h-10.5c-0.5,0-0.9,0.4-0.9,0.9
		c0,0,0,0.1,0,0.1c0.4,4,0.2,7.9-0.4,11.8l-0.2-0.2l0.2-11.6c0-0.4-0.2-0.6-0.6-0.6h-10.7c-0.3,0-0.5,0.2-0.5,0.5
		c0,1.1,0.2,11.3-0.5,11l-0.1-0.8l0.1-11l12.3-0.1c0.4,0,0.6-0.2,0.6-0.6l0.1-12.5l10.5,0.1c0.4,0,0.7-0.2,0.8-0.6
		C596,280.2,596.3,280,596.7,280.1z"/>
	<path d="M417.9,281.1l12,0.8c0.4,0,0.5,0.2,0.6,0.6c0,1.4-0.5,11.8,0.5,11.8l0.3,0.5c-0.9,0.9-0.5,11.1-0.5,12.9l0.2,12.1
		c-2.3,1.5-9.3,0.8-12.3,0.8c-0.1,0-0.4-0.1-0.7-0.4c-0.1-0.1-0.2-0.2-0.3-0.4v-12.2v-12.5L417.9,281.1z"/>
	<path class="st18" d="M494.7,281.4v26l-0.2-13c0-0.3-0.2-0.5-0.5-0.4c-1.3,0.3-0.8,11.3-0.8,13c0,0.3-0.3,0.6-0.6,0.6c0,0,0,0,0,0
		l-9.7,0c-0.3,0-0.6-0.3-0.6-0.6l-0.3-25.6l0.2,12.4c0,0.3,0.2,0.5,0.5,0.5l10,0.4c0.3,0,0.6-0.2,0.6-0.5c0,0,0,0,0,0v-11.6
		c0-0.3,0.1-0.6,0.4-0.9l0.5-0.5c0.1-0.1,0.3-0.1,0.4,0L494.7,281.4z"/>
	<path class="st16" d="M442,281.6l1.5,0.6c0.4,4.1,0.4,8.1,0,12.2l-12.2,0.2l-0.3-0.5l-0.3-11.5c0-0.5,0.2-0.7,0.7-0.8l0.7-0.1
		L442,281.6z"/>
	<path class="st12" d="M597.3,293.4l0.2,2l0,11.5c0,0.3,0.2,0.5,0.5,0.5l11.2-0.2l0.3,0.4c0.2,0.3,0.3,0.6,0.3,0.9l-0.1,12.5
		c-0.1-0.2-0.2-0.4-0.2-0.7c0-0.3-0.1-0.4-0.4-0.4l-11,0.2c-0.4,0-0.6-0.2-0.6-0.6l-0.2-9l-0.1-14L597.3,293.4z"/>
	<path class="st12" d="M443.5,294.4l0.3,1.5l0,10.5c0,0.4-0.3,0.8-0.8,0.8l-12.2,0.3c0-1.8-0.5-12,0.5-12.9L443.5,294.4z"/>
	<path class="st18" d="M417.7,294.9v12.5l-0.3,1.7c-0.1,0.5-0.3,0.6-0.7,0.2c-0.3-0.4-0.5-0.8-0.5-1.3c0-0.4-0.2-0.6-0.6-0.6
		l-10.4,0l0-12c0-0.4,0.3-0.7,0.7-0.7l0,0h9.8c0.3,0,0.5,0.2,0.5,0.5v12.2c0,0.3,0.2,0.5,0.5,0.5c0.1,0,0.3-0.1,0.3-0.2
		C417.9,306.8,417.6,296.9,417.7,294.9z"/>
	<path d="M597.2,296.4l0.1,14v11.2l-0.3,10.8c0,0.3-0.2,0.5-0.5,0.6c-4.1,0.4-8.2,0.2-12.2-0.6l-0.3-12.8c0.5-4.1,0.5-8.2,0-12.2
		c0.6-3.9,0.8-7.8,0.4-11.8c0-0.5,0.3-0.9,0.8-0.9c0,0,0.1,0,0.1,0h10.5c0.3,0,0.6,0.1,0.8,0.4C596.9,295.4,597.1,295.9,597.2,296.4
		z"/>
	<path class="st13" d="M609.2,307.2l-11.2,0.2c-0.3,0-0.5-0.1-0.5-0.5l0-11.5c3-0.7,6.5-0.9,10.3-0.7c0.9,0.1,1.4,0.5,1.4,1.5
		L609.2,307.2z"/>
	<path class="st21" d="M583.7,307.2l-11.6-0.1c-0.2,0-0.4-0.1-0.4-0.3l-0.1-0.3c0.7,0.3,0.5-9.9,0.5-11c0-0.3,0.2-0.5,0.5-0.5h10.7
		c0.4,0,0.6,0.2,0.6,0.6L583.7,307.2z"/>
	<path class="st13" d="M443.8,295.9c0.4,7.7,0.3,15-0.2,21.9c-0.1,1.3-1.2,2.3-2.5,2.2c0,0,0,0-0.1,0c-2.6-0.3-7.7,0.7-8.8-2
		c-0.2-0.5-0.4-0.5-0.6,0c-0.3,0.6-0.4,1.4-0.4,2.4c0.3,6.4,0.2,14.7-0.2,25l-0.2-10.5l0-2.2l0.1-13l-0.2-12.1l12.2-0.3
		c0.4,0,0.8-0.4,0.8-0.8L443.8,295.9z"/>
	<path class="st20" d="M571.5,305.7l0.1,0.8l0.1,0.3c0.1,0.2,0.2,0.3,0.4,0.3l11.6,0.1l0.2,0.2c0.5,4.1,0.5,8.2,0,12.2l-0.8,0.2
		l-11.7,0.5C571.1,315.5,571.1,310.6,571.5,305.7z"/>
	<path class="st20" d="M405.3,307.4l10.4,0c0.4,0,0.6,0.2,0.6,0.6c0,0.5,0.2,0.9,0.5,1.3c0.4,0.4,0.6,0.3,0.7-0.2l0.3-1.7v12.2
		c-0.1,0-0.1,0-0.2,0c-0.1,0-0.2,0.1-0.3,0.2c0,0.1-0.1,0.1-0.2,0.1l-11-0.2c-0.3,0-0.4,0.1-0.5,0.4c0,0.3-0.1,0.5-0.2,0.7V307.4z"
		/>
	<path class="st14" d="M597.3,310.4l0.2,9c0,0.4,0.2,0.6,0.6,0.6l11-0.2c0.3,0,0.4,0.1,0.4,0.4c0,0.3,0.1,0.5,0.2,0.7v12.5l-0.3-0.7
		c-0.2-0.4-0.4-0.5-0.7-0.1l-0.2,0.2c-0.3,0.3-0.6,0.4-1,0.4h-9.1c-0.5,0-1-0.4-1-1l-0.2-10.6V310.4z"/>
	<path class="st16" d="M417.5,319.7c0.6,4,0.8,8.1,0.4,12.3c0,0.4-0.2,0.6-0.6,0.6l-11.9-0.1l0-11.6c0.1-0.2,0.2-0.4,0.2-0.7
		c0-0.3,0.2-0.4,0.5-0.4l11,0.2c0.1,0,0.2,0,0.2-0.1C417.3,319.8,417.4,319.7,417.5,319.7z"/>
	<path class="st21" d="M417.5,319.7c0.1,0,0.1,0,0.2,0c0.1,0.1,0.2,0.3,0.3,0.4c0.3,0.3,0.6,0.4,0.7,0.4c2.9,0,10,0.7,12.3-0.8
		l-0.1,13l-12.5,0.1c-0.3,0-0.5,0.3-0.5,0.5l0,12c-0.1,0-0.1,0-0.2,0l0-11.4c0-0.3-0.2-0.5-0.5-0.5c-3.9-0.4-7.8-0.4-11.7,0.1l0-1
		l11.9,0.1c0.4,0,0.6-0.2,0.6-0.6C418.3,327.8,418.1,323.7,417.5,319.7z"/>
	<path class="st13" d="M583.2,319.9l0.2,10.9c0,0.8-0.4,1.3-1.2,1.3l-9.7,0.4c-0.4,0-0.8-0.3-0.8-0.7c0,0,0,0,0,0l-0.2-11.3
		L583.2,319.9z"/>
	<path class="st21" d="M597.3,321.7l0.2,10.6c0,0.5,0.5,1,1,1h9.1c0.4,0,0.7-0.1,1-0.4l0.2-0.2c0.3-0.3,0.6-0.3,0.7,0.1l0.3,0.7
		l0,11.9c-4.1,0.7-8.3,0.9-12.5,0.6l-12.1-0.5c-0.3,0-0.5-0.2-0.5-0.5c0-0.2-0.1-0.4-0.2-0.5v-12c4,0.9,8.1,1.1,12.2,0.6
		c0.3,0,0.5-0.2,0.5-0.6L597.3,321.7z"/>
	<path class="st14" d="M430.8,332.7l0,2.2l0,10.1c0,0.3-0.3,0.6-0.6,0.6c0,0,0,0,0,0l-11.9-0.1c-0.1,0-0.2,0-0.2,0.1
		c0,0.1-0.1,0.2-0.2,0.2l-0.1-0.5l0-12c0-0.3,0.2-0.5,0.5-0.5L430.8,332.7z"/>
	<path class="st19" d="M417.5,345.4l-11,0.3c-0.3,0-0.5,0.1-0.7,0.2l-0.5,0.3l-0.1-0.5l0-12.2c3.9-0.4,7.8-0.5,11.7-0.1
		c0.3,0,0.5,0.2,0.5,0.5L417.5,345.4z"/>
	<path class="st18" d="M430.8,334.9l0.2,10.5l-0.4,12.3c0,0.3-0.2,0.5-0.5,0.6c-4.1,0.4-8.2,0.3-12.3-0.3v-12c0.1,0,0.1-0.1,0.2-0.2
		c0-0.1,0.1-0.1,0.2-0.1l11.9,0.1c0.3,0,0.6-0.3,0.6-0.6l0,0L430.8,334.9z"/>
	<path class="st20" d="M584.3,344.4c0.1,0.1,0.2,0.3,0.2,0.5c0,0.3,0.2,0.5,0.5,0.5l12.1,0.5l-0.3,12.5c-4.1,0.6-8.1,0.7-12.2,0.4
		c-0.3,0-0.5-0.3-0.5-0.5l0-13.6C584.3,344.6,584.3,344.5,584.3,344.4z"/>
	<path class="st13" d="M584.2,344.7l0,13.6c0,0.3,0.2,0.5,0.5,0.5c4.1,0.4,8.2,0.3,12.2-0.4l0.3,12c0,0.1-0.1,0.2-0.1,0.2
		c-0.3,0-0.5,0.1-0.5,0.3c0,0.2-0.2,0.3-0.4,0.3c-3.9-0.3-7.8-0.3-11.7,0.2c0.1-2,0.8-11-0.2-12.5c-0.2-0.3-0.3-0.6-0.3-0.9
		L584.2,344.7z"/>
	<path d="M417.5,345.4c0.1,0,0.1,0,0.2,0l0.1,0.5v12l-0.1,13.5l-9.7-0.2c-0.3,0-0.5-0.1-0.7-0.3c-0.2-0.2-0.5-0.3-0.9-0.2
		c-0.4,0.1-0.6-0.1-0.6-0.5c0-1.4,0.3-11.5-0.5-11.8v-12.2l0.5-0.3c0.2-0.1,0.5-0.2,0.7-0.2L417.5,345.4z"/>
	<path d="M609.8,345.3l0,13.6l-0.1,12.2l-0.3,1.3c-0.1,0.6-0.3,0.7-0.6,0.1l-0.2-0.4c-0.2-0.3-0.4-0.5-0.8-0.6
		c-2.1-0.3-9.5,0.2-10.5-1.1l-0.3-12l0.3-12.5C601.5,346.2,605.6,346,609.8,345.3z"/>
	<path class="st23" d="M494.8,345.4c0.9,0.8,0.3,9.9,0.5,12.1c0,0.4,0.2,0.6,0.6,0.6l11.8,0.4l0,11.9c0,0.4-0.2,0.6-0.6,0.6
		l-1.6,0.1l-10.5-0.1L494.8,345.4z"/>
	<path class="st13" d="M405.2,345.7l0.1,0.5v12.2c0,0.1-0.1,0.2-0.1,0.2l-11.6,0c-0.9,0-1.4,0.5-1.4,1.4c0.1,7.4,0.1,14.7,0,21.9
		c0,1.1-0.3,1.7-1,2l-8,0.2l-3.3,0c-0.2,0-0.4,0.1-0.4,0.4l0,0.4c-0.1,0-0.1,0-0.2,0c0-0.6,0.1-1.1,0.5-1.4c0.2-0.2,0.3-0.4,0.3-0.7
		l-0.4-10.1c0-0.7,0.5-1.3,1.2-1.4c3.5-0.5,7-0.4,10.5,0.2c0.4,0.1,0.6-0.1,0.6-0.5v-11.6c0-0.4,0.2-0.7,0.5-0.9
		c0.1-0.1,0.2-0.1,0.2-0.2c0.2-0.2,0.3-0.4,0.3-0.6v-10.8c0-0.4,0.2-0.6,0.6-0.7l8.2-0.2c0.3,0,0.7,0.1,1,0.2l0.8,0.4
		c0.3,0.1,0.5,0.1,0.8-0.1L405.2,345.7z"/>
	<path class="st12" d="M405.2,358.7l0,12c-0.2,0.1-0.3,0.2-0.3,0.4c-0.1,0.2-0.2,0.4-0.4,0.4H393c-0.3,0-0.5,0.2-0.5,0.5v11.5
		c0,0.3-0.2,0.5-0.5,0.5l-0.8,0c0.6-0.2,0.9-0.9,1-2c0.1-7.2,0.1-14.5,0-21.9c0-0.9,0.4-1.4,1.4-1.4L405.2,358.7z"/>
	<path class="st23" d="M405.3,358.4c0.8,0.3,0.5,10.3,0.5,11.8c0,0.4,0.2,0.6,0.6,0.5c0.4-0.1,0.7,0,0.9,0.2
		c0.2,0.2,0.4,0.3,0.7,0.3l9.7,0.2l0,12.2l0.1,12.4c0,0.3,0.1,0.4,0.4,0.4h12.1c0.3,0,0.4-0.1,0.4-0.4l-0.1-10.9
		c0-0.4-0.2-0.6-0.5-0.7l-0.7-0.2h15.8l-1.1,0.2c-0.3,0.1-0.4,0.2-0.4,0.5l0,11.1c0,0.4-0.2,0.7-0.6,0.7l-37.8,0.3l0-12.9
		c0-0.1,0-0.2,0-0.3c0-0.1,0.1-0.1,0.1-0.1c3.4-0.2,6.8-0.2,10.2,0.2c0.4,0,0.6-0.2,0.6-0.6V372c0-0.3-0.1-0.4-0.4-0.4h-8.7
		c-0.3,0-0.6-0.1-0.9-0.3l-1-0.7l0-12C405.3,358.6,405.3,358.5,405.3,358.4z"/>
	<path class="st18" d="M481.5,371.2l-12.2,0c-0.4-4-0.5-8-0.2-12.1c0-0.4,0.2-0.6,0.7-0.6l11.4,0c0.4,0,0.8,0.3,0.9,0.8
		C482.6,363.2,482.4,367.3,481.5,371.2z"/>
	<path class="st18" d="M622.8,371.2v3l-0.3-2.1c-0.1-0.4-0.3-0.6-0.7-0.6l-11.3-0.1c-0.3,0-0.5-0.2-0.5-0.5l0-11
		c0.3-0.2,0.5-0.4,0.6-0.8c0.1-0.3,0.3-0.5,0.6-0.5h10.2c0.7,0,1.1,0.4,1.1,1.1L622.8,371.2z"/>
	<path class="st12" d="M609.8,358.9l0.2,1l0,11c0,0.3,0.2,0.5,0.5,0.5l11.3,0.1c0.4,0,0.7,0.2,0.7,0.6l0.3,2.1v5.5l-0.4,3.9
		c0,0.4-0.3,0.6-0.6,0.6l-12.5-0.1c0.6-4.3,0.7-8.6,0.5-13L609.8,358.9z"/>
	<path class="st17" d="M597.3,370.4c1,1.3,8.4,0.8,10.5,1.1c0.4,0.1,0.6,0.2,0.8,0.6l0.2,0.4c0.3,0.6,0.5,0.6,0.6-0.1l0.3-1.3
		c0.3,4.3,0.1,8.7-0.5,13l-12-0.2l0-13.2C597.3,370.6,597.3,370.5,597.3,370.4z"/>
	<path class="st20" d="M405.3,370.7l-0.2,13.5l-11.7,0.2c-0.4,0-0.6,0.2-0.6,0.6l-0.2,24.2c-0.1,0-0.1,0-0.2,0l-0.1-9.2l0-14.9
		c0-0.4-0.2-0.7-0.7-0.7l-8.2-0.2l8-0.2l0.8,0c0.3,0,0.5-0.1,0.5-0.5v-11.5c0-0.3,0.2-0.5,0.5-0.5h11.5c0.2,0,0.4-0.1,0.4-0.4
		C405,370.9,405.1,370.7,405.3,370.7z"/>
	<path class="st15" d="M405.3,370.7l1,0.7c0.3,0.2,0.6,0.3,0.9,0.3h8.7c0.3,0,0.4,0.1,0.4,0.4v11.4c0,0.4-0.2,0.6-0.6,0.6
		c-3.4-0.3-6.8-0.4-10.2-0.2c-0.1,0-0.1,0-0.1,0.1c0,0.1,0,0.1,0,0.3c-0.1,0-0.1,0-0.2,0L405.3,370.7z"/>
	<path class="st18" d="M597.2,370.7l0,13.2l-12,0c-0.4,0-0.6-0.2-0.7-0.6c-0.6-3.8-0.6-7.7,0-11.8c3.9-0.5,7.8-0.6,11.7-0.2
		c0.2,0,0.4-0.1,0.4-0.3C596.8,370.8,596.9,370.7,597.2,370.7z"/>
	<path d="M469.3,371.2l12.2,0l1,0.5c-0.6,4-0.8,7.9-0.5,12l0,26.2c-1.7,0.5-3.2-0.3-4.7-0.3c-2.8,0-5.5,0.1-8.3,0.5
		c-0.1-0.1-0.1-0.1-0.2-0.2c-0.1-0.2-0.3-0.3-0.5-0.3l-11.4,0.1l-41.3-0.1c-0.4-1,0.1-1.6,1.5-1.7c0.4,0,0.5-0.2,0.5-0.6l-0.1-9.4
		c0-0.3,0.3-0.6,0.6-0.6h24.2c0.3,0,0.5-0.1,0.8-0.2l0.4-0.2c0.3-0.2,0.6-0.3,0.9-0.3l10.4-0.1c0.4,0,0.6-0.2,0.6-0.6l0.2-5.9
		c0-0.4,0.1-0.7,0.2-1c0.5-1.3,0.6-2.6,0.2-4c-0.1-0.3,0-0.4,0.4-0.4c0.7,0.1,1.3,0,1.9-0.5l9.5-0.1c0.4,0,0.6-0.2,0.6-0.6
		c0.4-3.9,0.4-7.7,0.1-11.6L469.3,371.2z"/>
	<path class="st14" d="M493.3,371.4c0.1,0.3,0.4,0.5,0.7,0.5c0.4,0,0.5,0.2,0.6,0.5l0.3,12.7l-0.1,2.2l-0.2-2.8
		c0-0.4-0.2-0.6-0.6-0.6l-10.9,0.4c-0.3,0-0.5-0.1-0.7-0.3l-0.3-0.4c-0.3-4-0.1-8,0.5-12C486.1,371,489.7,370.9,493.3,371.4z"/>
	<path class="st12" d="M495,371.1l10.5,0.1l1.7,0.2c0.4,0.1,0.6,0.3,0.6,0.7l0,37.5l-0.3-0.2l0-24.9c0-0.3-0.1-0.4-0.4-0.4
		l-11.1,0.1c-0.3,0-0.5,0.1-0.7,0.4l-0.4,0.6l-0.3-12.7c0-0.4-0.2-0.5-0.6-0.5c-0.3,0-0.6-0.1-0.7-0.5L495,371.1z"/>
	<path class="st18" d="M468.7,371.9c0.3,3.9,0.3,7.7-0.1,11.6c0,0.4-0.2,0.6-0.6,0.6l-9.5,0.1l-1.3-0.3c-0.8-3.9-1-7.8-0.6-11.8
		c0-0.3,0.2-0.5,0.5-0.5C461,371.1,464.9,371.2,468.7,371.9z"/>
	<path class="st15" d="M417.8,383.6l0.4,0.4c0.1,0.1,0.2,0.1,0.4,0.1l11,0.1l0.7,0.2c0.3,0.1,0.5,0.4,0.5,0.7l0.1,10.9
		c0,0.3-0.1,0.4-0.4,0.4h-12.1c-0.3,0-0.4-0.1-0.4-0.4L417.8,383.6z"/>
	<path class="st21" d="M482.1,383.7l0.3,0.4c0.2,0.2,0.4,0.3,0.7,0.3l10.9-0.4c0.4,0,0.6,0.2,0.6,0.6l0.2,2.8l0,22l-12.8,0.5
		L482.1,383.7z"/>
	<path class="st18" d="M405,384.1c0.1,0,0.1,0,0.2,0l0,12.9l-0.3,12.4c-4.2,0.6-8.4,0.5-12.5-0.2l0.2-24.2c0-0.4,0.2-0.6,0.6-0.6
		L405,384.1z"/>
	<path class="st17" d="M457.2,383.9l1.3,0.3c-0.5,0.4-1.2,0.6-1.9,0.5c-0.3,0-0.4,0.1-0.4,0.4c0.4,1.4,0.3,2.7-0.2,4
		c-0.1,0.3-0.2,0.7-0.2,1l-0.2,5.9c0,0.4-0.2,0.6-0.6,0.6l-10.4,0.1c-0.3,0-0.6,0.1-0.9,0.3l-0.4,0.2c-0.2,0.1-0.5,0.2-0.8,0.2
		h-24.2c-0.3,0-0.6,0.3-0.6,0.6l0.1,9.4c0,0.4-0.2,0.6-0.5,0.6c-1.4,0.1-1.9,0.7-1.5,1.7l-10.7-0.2l0.3-12.4l37.8-0.3
		c0.4,0,0.6-0.2,0.6-0.7l0-11.1c0-0.3,0.1-0.5,0.4-0.5l1.1-0.2L457.2,383.9z"/>
	<path class="st22" d="M507.5,409.4l-0.8-0.4c-0.2-0.1-0.4-0.1-0.5,0.1l-0.2,0.3c-0.1,0.1-0.2,0.2-0.3,0.2l-10.9-0.2l0-22l0.1-2.2
		l0.4-0.6c0.2-0.2,0.4-0.4,0.7-0.4l11.1-0.1c0.3,0,0.4,0.1,0.4,0.4L507.5,409.4z"/>
	<path class="st23" d="M383.3,384.1l8.2,0.2c0.4,0,0.7,0.2,0.7,0.7l0,14.9l-0.5-11.9c0-0.1-0.1-0.2-0.2-0.2c-0.1,0-0.2-0.1-0.3-0.1
		c-0.3-0.1-0.4,0-0.4,0.3v7.7c0,0.5-0.3,0.8-0.8,0.8l-9.2-0.1c-0.4,0-0.7-0.2-0.7-0.7c0-1.3,0.2-10.6-0.6-10.9l0-0.4
		c0-0.2,0.2-0.3,0.4-0.4L383.3,384.1z"/>
	<path class="st19" d="M379.3,384.9c0.1,0,0.1,0,0.2,0c0.7,0.3,0.5,9.6,0.6,10.9c0,0.4,0.2,0.7,0.7,0.7l9.2,0.1
		c0.5,0,0.8-0.3,0.8-0.8v-7.7c0-0.3,0.1-0.4,0.4-0.3c0.1,0,0.2,0.1,0.3,0.1c0.1,0,0.2,0.1,0.2,0.2l0.5,11.9l0.1,9.2l-0.3,0.8
		l-11.6-0.4c-0.3,0-0.6-0.2-0.7-0.5l-0.3-0.6V384.9z"/>
	<path class="st13" d="M622.2,397.2l-24.6-0.2c-0.4,0-0.8,0.3-0.8,0.8c0,0,0,0,0,0l0.1,9.1c0,0.8,0.7,1.5,1.6,1.5l10.6,0
		c0.1,0,0.1,0,0.1,0.1c0,0.1,0,0.2,0,0.3c0,0.2-0.1,0.3-0.3,0.3l-11.5,0.5l-0.1,12.2c0,0.1,0,0.2,0.1,0.3l0.3,0.3l-11.6,0.1
		c-0.9,0-1.7-0.8-1.7-1.7c0,0,0,0,0,0l0.4-23.2c0-0.4,0.2-0.6,0.7-0.6l35.2-0.6c0.3,0,0.6,0.1,0.9,0.3L622.2,397.2z"/>
	<path class="st22" d="M622.2,397.2l0,11.8c0,0.3,0.1,0.5,0.3,0.7l0.2,0.3v2.5c-0.4,2.5-0.4,5,0,7.5v2.2c-4.5,0.6-9,0.7-13.5,0.2
		l0.5-0.3l12,0c0.3,0,0.5-0.2,0.5-0.5v-10.8c0-0.5-0.4-1-1-1l0,0l-11.8,0.1l-12.1-0.4l11.5-0.5c0.2,0,0.3-0.1,0.3-0.3
		c0-0.1,0-0.2,0-0.3c0-0.1-0.1-0.1-0.1-0.1l-10.6,0c-0.9,0-1.5-0.7-1.6-1.5l-0.1-9.1c0-0.4,0.3-0.8,0.8-0.8c0,0,0,0,0,0L622.2,397.2
		z"/>
	<path class="st20" d="M379.3,408.4l0.3,0.6c0.1,0.3,0.4,0.5,0.7,0.5l11.6,0.4c0.4,3.9,0.5,7.9,0.2,11.9c0,0.4-0.2,0.6-0.6,0.6
		l-10.8,0.1l-1-0.4c-0.4-0.2-0.5-0.4-0.5-0.8L379.3,408.4z"/>
	<path class="st13" d="M392.3,409.2c0.1,0,0.1,0,0.2,0c4.1,0.8,8.3,0.8,12.5,0.2l10.7,0.2l41.3,0.1c3,0.5,6.1,0.6,9.2,0.4
		c2.8-0.2,2.8-0.1,0,0.3c-2.3,0.3-4.6,0.4-7,0.2c-0.4,0-0.7,0-1,0.2l-1.3,0.6c-0.3,0.2-0.5,0.4-0.5,0.8l0.1,9.3
		c0,0.3,0.2,0.4,0.5,0.4l10.2,0.2c-6.4,0.6-14.6-0.2-19-0.2c-17.2-0.2-34.5-0.1-51.7,0.3c-3.8,0.1-10.4,0.8-15.7,0.2l10.8-0.1
		c0.4,0,0.6-0.2,0.6-0.6c0.3-4,0.2-7.9-0.2-11.9L392.3,409.2z"/>
	<path class="st12" d="M494.8,409.4l0,12.2c0,0.4-0.2,0.6-0.6,0.6l-12.4,0.1l0.2-12.5L494.8,409.4z"/>
	<path class="st22" d="M457,409.7l11.4-0.1c0.2,0,0.4,0.1,0.5,0.3c0.1,0.1,0.1,0.2,0.2,0.2l0,12l-1.8,0L457,422
		c-0.3,0-0.4-0.2-0.5-0.4l-0.1-9.3c0-0.4,0.2-0.6,0.5-0.8l1.3-0.6c0.3-0.2,0.7-0.2,1-0.2c2.4,0.2,4.7,0.2,7-0.2
		c2.7-0.4,2.7-0.5,0-0.3C463.1,410.3,460,410.2,457,409.7z"/>
	<path class="st17" d="M482,409.9l-0.2,12.5c-4,0.4-7.9,0.5-11.9,0.2c-0.2,0-0.4-0.1-0.5-0.2l-0.4-0.2l0-12c2.8-0.4,5.5-0.5,8.3-0.5
		C478.8,409.6,480.3,410.4,482,409.9z"/>
	<path class="st15" d="M597.4,409.5l12.1,0.4l0.2,12.2l-0.5,0.3l-11.5,0l-0.3-0.3c-0.1-0.1-0.1-0.2-0.1-0.3L597.4,409.5z"/>
	<path class="st12" d="M609.5,409.9l11.8-0.1c0.5,0,1,0.4,1,1l0,0v10.8c0,0.3-0.2,0.5-0.5,0.5l-12,0L609.5,409.9z"/>
	<path class="st13" d="M622.8,412.5v7.5C622.3,417.5,622.3,415,622.8,412.5z"/>
</g>
</svg>
